/vscmnt/brussel_pixiu_data/_data_brussel/112/vsc11236/PredSimResults/SUBJ04_Dhondt2024_3seg/weighted/worker_04.mot
version=1
nRows=4
nColumns=124
inDegrees=yes
endheader
                time	         pelvis_tilt	         pelvis_list	     pelvis_rotation	           pelvis_tx	           pelvis_ty	           pelvis_tz	       hip_flexion_r	     hip_adduction_r	      hip_rotation_r	        knee_angle_r	       ankle_angle_r	    subtalar_angle_r	         mtp_angle_r	       hip_flexion_l	     hip_adduction_l	      hip_rotation_l	        knee_angle_l	       ankle_angle_l	    subtalar_angle_l	         mtp_angle_l	    lumbar_extension	      lumbar_bending	     lumbar_rotation	          arm_flex_r	           arm_add_r	           arm_rot_r	        elbow_flex_r	          arm_flex_l	           arm_add_l	           arm_rot_l	        elbow_flex_l	glut_med1_r/activation	glut_med2_r/activation	glut_med3_r/activation	glut_min1_r/activation	glut_min2_r/activation	glut_min3_r/activation	semimem_r/activation	semiten_r/activation	bifemlh_r/activation	bifemsh_r/activation	    sar_r/activation	add_long_r/activation	add_brev_r/activation	add_mag1_r/activation	add_mag2_r/activation	add_mag3_r/activation	    tfl_r/activation	   pect_r/activation	   grac_r/activation	glut_max1_r/activation	glut_max2_r/activation	glut_max3_r/activation	iliacus_r/activation	  psoas_r/activation	quad_fem_r/activation	    gem_r/activation	   peri_r/activation	rect_fem_r/activation	vas_med_r/activation	vas_int_r/activation	vas_lat_r/activation	med_gas_r/activation	lat_gas_r/activation	 soleus_r/activation	tib_post_r/activation	flex_dig_r/activation	flex_hal_r/activation	tib_ant_r/activation	per_brev_r/activation	per_long_r/activation	per_tert_r/activation	ext_dig_r/activation	ext_hal_r/activation	glut_med1_l/activation	glut_med2_l/activation	glut_med3_l/activation	glut_min1_l/activation	glut_min2_l/activation	glut_min3_l/activation	semimem_l/activation	semiten_l/activation	bifemlh_l/activation	bifemsh_l/activation	    sar_l/activation	add_long_l/activation	add_brev_l/activation	add_mag1_l/activation	add_mag2_l/activation	add_mag3_l/activation	    tfl_l/activation	   pect_l/activation	   grac_l/activation	glut_max1_l/activation	glut_max2_l/activation	glut_max3_l/activation	iliacus_l/activation	  psoas_l/activation	quad_fem_l/activation	    gem_l/activation	   peri_l/activation	rect_fem_l/activation	vas_med_l/activation	vas_int_l/activation	vas_lat_l/activation	med_gas_l/activation	lat_gas_l/activation	 soleus_l/activation	tib_post_l/activation	flex_dig_l/activation	flex_hal_l/activation	tib_ant_l/activation	per_brev_l/activation	per_long_l/activation	per_tert_l/activation	ext_dig_l/activation	ext_hal_l/activation	 ercspn_r/activation	 ercspn_l/activation	 intobl_r/activation	 intobl_l/activation	 extobl_r/activation	 extobl_l/activation	
          0.00000000	         -2.92876374	          0.32473548	          1.67432779	          0.00000000	          0.87098455	         -0.00165007	         28.66282430	          3.10986918	          6.84395086	        -11.63223384	          3.94101341	         -4.84364188	          0.20250430	        -14.10965738	          4.21791481	         14.18273614	         -5.89610118	          9.51821804	         -0.42483226	         12.73109890	         -4.14040139	         -1.75346962	         -1.15657864	         -2.91439155	        -13.45541483	         15.86602353	         22.63068300	          2.83582865	        -13.49897895	         19.36217693	         39.32069198	          0.01479808	          0.01000881	          0.01000028	          0.01479800	          0.01479406	          0.01000090	          0.06395341	          0.03266436	          0.01216512	          0.01000022	          0.01265508	          0.13543892	          0.16785771	          0.12959889	          0.13886333	          0.08267663	          0.01000041	          0.02650048	          0.05820642	          0.01213061	          0.01216542	          0.04272515	          0.02497571	          0.02202892	          0.01659831	          0.01000074	          0.01000017	          0.01000007	          0.06123965	          0.06364362	          0.05233274	          0.01000009	          0.01000016	          0.01000015	          0.01000130	          0.01000104	          0.01000185	          0.22712326	          0.17065547	          0.11218333	          0.14314619	          0.33683864	          0.03560443	          0.39635362	          0.18995005	          0.09943443	          0.37568272	          0.36862756	          0.23481138	          0.01211004	          0.01000144	          0.01000203	          0.05549008	          0.12868190	          0.01000005	          0.01000008	          0.01000029	          0.01000113	          0.01000060	          0.36949403	          0.01000028	          0.01000039	          0.03333957	          0.02428745	          0.01000242	          0.23779061	          0.37882480	          0.01003559	          0.02190048	          0.10272625	          0.14788443	          0.01000022	          0.01000027	          0.01000023	          0.42452323	          0.46159474	          0.38530699	          0.22040444	          0.25921986	          0.31621007	          0.01249231	          0.07848697	          0.17716506	          0.01479707	          0.01479824	          0.01330438	          0.01481123	          0.01000000	          0.04955198	          0.01000001	          0.08307044	          0.01000004	
          0.01298799	         -2.93019990	          0.10456075	          1.81817468	          0.01418413	          0.87041088	         -0.00144418	         27.94962637	          3.54691441	          7.02642144	        -11.05982098	          3.02074917	         -5.24306290	          0.21552435	        -14.36924544	          4.03127761	         13.84606547	         -7.14676511	          9.18525559	         -0.02972863	         13.82354558	         -4.00561687	         -1.31956383	         -1.22999539	         -3.64661443	        -13.46298001	         15.44191852	         21.36936742	          2.37143282	        -13.51760420	         19.35920418	         41.55752718	          0.01216482	          0.01000144	          0.01000016	          0.01216485	          0.01216452	          0.01000093	          0.05257314	          0.02685188	          0.01000040	          0.01000004	          0.01040323	          0.11134097	          0.17650936	          0.16230701	          0.13283949	          0.06796488	          0.01000029	          0.03575025	          0.04784895	          0.01000042	          0.01000078	          0.06302112	          0.02053141	          0.01810898	          0.10273535	          0.01000045	          0.01000040	          0.01479806	          0.07192479	          0.06670469	          0.06021740	          0.01000000	          0.01000001	          0.01000000	          0.01000001	          0.01000011	          0.01000009	          0.23898890	          0.15210772	          0.10160456	          0.18259161	          0.36224341	          0.04884154	          0.42040213	          0.15614904	          0.08174038	          0.31301651	          0.30303167	          0.19302745	          0.01000087	          0.01000021	          0.01000017	          0.04561581	          0.10578411	          0.01000028	          0.01000021	          0.01000059	          0.01000184	          0.01000048	          0.30631656	          0.01000184	          0.01000548	          0.02740708	          0.01996577	          0.01000139	          0.23395262	          0.31141481	          0.01479783	          0.01800375	          0.08444644	          0.15896520	          0.01000033	          0.01000040	          0.01000033	          0.39301364	          0.42897876	          0.37106543	          0.21609028	          0.25968986	          0.31527541	          0.01026934	          0.06452048	          0.15961302	          0.01216400	          0.01216495	          0.01093694	          0.01217563	          0.01000003	          0.04073436	          0.01472661	          0.06828831	          0.01000004	
          0.02597599	         -2.92717948	         -0.12834360	          1.95599905	          0.02874582	          0.86993678	         -0.00123871	         27.20927975	          3.97067051	          7.24320576	        -11.11227527	          1.82335565	         -5.63053749	          0.22356680	        -14.56972103	          3.83041172	         13.48981393	         -8.52374378	          8.69690802	          0.40418613	         14.99887001	         -3.84845237	         -0.86571518	         -1.29688319	         -4.40540042	        -13.47857059	         15.17378354	         20.10352397	          1.82401816	        -13.53557693	         19.34473458	         43.79260074	          0.01000014	          0.01000002	          0.01000009	          0.01000019	          0.01000008	          0.01000010	          0.04321803	          0.05441762	          0.02148515	          0.02663512	          0.01478786	          0.09152847	          0.14510605	          0.13342555	          0.10920132	          0.05587078	          0.01000027	          0.02939163	          0.09284918	          0.01000008	          0.01000007	          0.05180674	          0.01800050	          0.01800095	          0.15177095	          0.02091397	          0.01000039	          0.01216481	          0.05912600	          0.05483481	          0.04950191	          0.01479803	          0.01480395	          0.01479779	          0.01216545	          0.01216518	          0.01279390	          0.19646159	          0.12505150	          0.11061582	          0.15010003	          0.40048322	          0.04015041	          0.37317845	          0.12836280	          0.06719494	          0.25733394	          0.24910819	          0.15867883	          0.01000488	          0.01000045	          0.01000032	          0.03749863	          0.08696029	          0.01000035	          0.01000029	          0.01000080	          0.01000260	          0.01000093	          0.25180867	          0.01000224	          0.01000111	          0.02253019	          0.01641307	          0.01000100	          0.21664663	          0.26891197	          0.01216468	          0.01480020	          0.06941946	          0.18225424	          0.01000024	          0.01000030	          0.01000027	          0.35788382	          0.39052029	          0.35062404	          0.20563735	          0.25185352	          0.30385688	          0.01000001	          0.05303930	          0.16870238	          0.01000007	          0.01000024	          0.01000009	          0.01000902	          0.01000371	          0.03348581	          0.01216470	          0.05613661	          0.01454527	
          0.03896398	         -2.92115862	         -0.38156952	          2.08279217	          0.04357219	          0.86960539	         -0.00104708	         26.43283005	          4.36089034	          7.49843148	        -11.32967556	          0.47482997	         -6.01531400	          0.22141372	        -14.69003661	          3.61070067	         13.10679043	        -10.04011910	          8.03191459	          0.87102536	         16.24287698	         -3.67707855	         -0.38296146	         -1.35483062	         -5.16226459	        -13.50333862	         15.09196418	         18.81491858	          1.21002545	        -13.54731557	         19.31838404	         46.01339903	          0.19043158	          0.19344941	          0.17598287	          0.06182919	          0.01000120	          0.01000061	          0.03552756	          0.04496727	          0.03415842	          0.02189551	          0.01215655	          0.07524128	          0.11928492	          0.10968299	          0.08976947	          0.05966830	          0.01000032	          0.02416171	          0.07632702	          0.14050086	          0.01748546	          0.04778571	          0.01479738	          0.01479775	          0.12476381	          0.01719255	          0.01000061	          0.01000016	          0.04860565	          0.04507746	          0.04069377	          0.01216477	          0.01216964	          0.01216458	          0.01000065	          0.01000046	          0.01051729	          0.31403159	          0.19759793	          0.10679247	          0.38977095	          0.46379591	          0.17876185	          0.39135666	          0.10552104	          0.05523780	          0.38299972	          0.20478022	          0.13044243	          0.01000153	          0.01000017	          0.01000017	          0.03082588	          0.07148605	          0.01000006	          0.01000007	          0.01000023	          0.01000086	          0.01000043	          0.20700022	          0.01000027	          0.01000029	          0.01852111	          0.01349259	          0.01000076	          0.19728175	          0.27235003	          0.01000023	          0.01216672	          0.05706649	          0.16093175	          0.01052964	          0.01002037	          0.01000407	          0.31498051	          0.34886941	          0.32493414	          0.18752315	          0.22974203	          0.28437516	          0.01000002	          0.04360143	          0.18064229	          0.01000010	          0.01000002	          0.01000014	          0.01727833	          0.01903681	          0.02752712	          0.01000003	          0.04614727	          0.01195700	
